# xmcd CD database file generated by LOLA_Freedb v0.9beta0
# 
# Track frame offsets:
#      150
#      24925
#      51160
#      76240
#      97110
#      121667
#      143065
#      165075
#      183697
#      202947
#      226047
#      248350
# 
# Disc length: 3611 seconds
# 
# Revision: 1 
# Processed by: cddbd v1.5.1PL2 Copyright (c) Steve Scherf et al.
# Submitted via: LOLA_Freedb v0.9beta0
# 
DISCID=830e190c
DTITLE=Snooky Pryor - Mind Your Own Business
DYEAR=1996
DGENRE=Blues
TTITLE0=Snooky Pryor - Mind Your Own Business
TTITLE1=Come On Down To My House
TTITLE2=Goin' Back To Arkansas
TTITLE3=Motty And Me
TTITLE4=I'm So Glad
TTITLE5=You Set Me Free
TTITLE6=Miss Fanny Brown
TTITLE7=Good Or Bad Times
TTITLE8=Shake Your Boogie
TTITLE9=Diggin' My Potatoes
TTITLE10=No More Monkey Business
TTITLE11=Little Brown Hen
EXTD=
EXTT0=
EXTT1=
EXTT2=
EXTT3=
EXTT4=
EXTT5=
EXTT6=
EXTT7=
EXTT8=
EXTT9=
EXTT10=
EXTT11=
PLAYORDER=
